<svg width="55" height="55" viewBox="0 0 55 55" fill="none" xmlns="http://www.w3.org/2000/svg">
<path d="M6.43891 11.9077C6.33707 8.97933 8.61828 6.27917 11.7021 6.27917H43.3014C46.3852 6.27917 48.6664 8.97933 48.5646 11.9077C48.4666 14.7204 48.5938 18.3641 49.5108 21.335C50.4307 24.3153 51.9819 26.1986 54.5227 26.441V29.1854C51.9819 29.4277 50.4307 31.3111 49.5108 34.2914C48.5938 37.2622 48.4666 40.906 48.5646 43.7187C48.6664 46.647 46.3852 49.3468 43.3014 49.3468H11.7021C8.61828 49.3468 6.33707 46.6466 6.43891 43.7187C6.53687 40.906 6.40969 37.2622 5.4923 34.2914C4.57277 31.3115 3.0173 29.4277 0.476562 29.1854V26.441C3.0173 26.1991 4.57277 24.3153 5.4923 21.335C6.40969 18.3641 6.53645 14.7204 6.43891 11.9077Z" fill="url(#paint0_linear_37_353)"/>
<g filter="url(#filter0_d_37_353)">
<path d="M28.8361 39.4178C33.8286 39.4178 36.8371 36.9733 36.8371 32.9413C36.8371 29.8936 34.6905 27.6871 31.5031 27.3378V27.2108C33.8449 26.8299 35.6825 24.6552 35.6825 22.2265C35.6825 18.7661 32.9505 16.5119 28.7873 16.5119H19.4202V39.4178H28.8361ZM23.0629 19.4168H27.9092C30.5437 19.4168 32.0397 20.5915 32.0397 22.7185C32.0397 24.9886 30.2997 26.2584 27.1448 26.2584H23.0629V19.4168ZM23.0629 36.5128V28.9728H27.8766C31.3242 28.9728 33.113 30.2427 33.113 32.719C33.113 35.1953 31.373 36.5128 28.088 36.5128H23.0629Z" fill="url(#paint1_linear_37_353)"/>
<path d="M28.8361 39.4178C33.8286 39.4178 36.8371 36.9733 36.8371 32.9413C36.8371 29.8936 34.6905 27.6871 31.5031 27.3378V27.2108C33.8449 26.8299 35.6825 24.6552 35.6825 22.2265C35.6825 18.7661 32.9505 16.5119 28.7873 16.5119H19.4202V39.4178H28.8361ZM23.0629 19.4168H27.9092C30.5437 19.4168 32.0397 20.5915 32.0397 22.7185C32.0397 24.9886 30.2997 26.2584 27.1448 26.2584H23.0629V19.4168ZM23.0629 36.5128V28.9728H27.8766C31.3242 28.9728 33.113 30.2427 33.113 32.719C33.113 35.1953 31.373 36.5128 28.088 36.5128H23.0629Z" stroke="white" stroke-width="0.24566"/>
</g>
<defs>
<filter id="filter0_d_37_353" x="15.3668" y="13.4412" width="25.5237" height="31.0126" filterUnits="userSpaceOnUse" color-interpolation-filters="sRGB">
<feFlood flood-opacity="0" result="BackgroundImageFix"/>
<feColorMatrix in="SourceAlpha" type="matrix" values="0 0 0 0 0 0 0 0 0 0 0 0 0 0 0 0 0 0 127 0" result="hardAlpha"/>
<feOffset dy="0.98264"/>
<feGaussianBlur stdDeviation="1.96528"/>
<feColorMatrix type="matrix" values="0 0 0 0 0 0 0 0 0 0 0 0 0 0 0 0 0 0 0.15 0"/>
<feBlend mode="normal" in2="BackgroundImageFix" result="effect1_dropShadow_37_353"/>
<feBlend mode="normal" in="SourceGraphic" in2="effect1_dropShadow_37_353" result="shape"/>
</filter>
<linearGradient id="paint0_linear_37_353" x1="8.50767" y1="7.41898" x2="55.734" y2="44.9078" gradientUnits="userSpaceOnUse">
<stop stop-color="#9013FE"/>
<stop offset="1" stop-color="#6610F2"/>
</linearGradient>
<linearGradient id="paint1_linear_37_353" x1="21.0681" y1="18.0193" x2="31.6238" y2="35.8721" gradientUnits="userSpaceOnUse">
<stop stop-color="white"/>
<stop offset="1" stop-color="#F1E5FC"/>
</linearGradient>
</defs>
</svg>
