<svg width="50" height="52" viewBox="0 0 50 52" fill="none" xmlns="http://www.w3.org/2000/svg">
<path d="M17.7734 51.3984C22.4219 51.3984 26.1719 47.5734 26.1719 42.832V34.2656H17.7734C13.125 34.2656 9.375 38.0906 9.375 42.832C9.375 47.5734 13.125 51.3984 17.7734 51.3984Z" fill="#0ACF83"/>
<path d="M9.375 25.6992C9.375 20.9578 13.125 17.1328 17.7734 17.1328H26.1719V34.2656H17.7734C13.125 34.2656 9.375 30.4406 9.375 25.6992Z" fill="#A259FF"/>
<path d="M9.375 8.56641C9.375 3.825 13.125 0 17.7734 0H26.1719V17.1328H17.7734C13.125 17.1328 9.375 13.3078 9.375 8.56641Z" fill="#F24E1E"/>
<path d="M26.1719 0H34.5703C39.2188 0 42.9688 3.825 42.9688 8.56641C42.9688 13.3078 39.2188 17.1328 34.5703 17.1328H26.1719V0Z" fill="#FF7262"/>
<path d="M42.9688 25.6992C42.9688 30.4406 39.2188 34.2656 34.5703 34.2656C29.9219 34.2656 26.1719 30.4406 26.1719 25.6992C26.1719 20.9578 29.9219 17.1328 34.5703 17.1328C39.2188 17.1328 42.9688 20.9578 42.9688 25.6992Z" fill="#1ABCFE"/>
</svg>
