<svg width="52" height="42" viewBox="0 0 52 42" fill="none" xmlns="http://www.w3.org/2000/svg">
<g id="Group 10">
<g id="Logo">
<path id="Vector" d="M47.3454 16.3015L31.7054 31.9416L18.4779 18.7141H13.9891L11.6099 16.3349L13.8334 14.1113H20.3874L31.7026 25.4265L34.6794 22.4525L25.6517 13.4248L28.9065 10.1672L37.9341 19.1949L40.8331 16.2987L31.8054 7.27105L35.0602 4.0163L47.3454 16.3015Z" fill="white"/>
<path id="Vector_2" d="M29.5236 3.04071L24.9208 7.6435H19.0784L10.3842 16.3404L19.6593 25.6155L22.0691 23.2057L25.3238 26.4605L19.6565 32.1278L3.86914 16.3404L17.1661 3.04071H29.5236Z" fill="white"/>
<path id="Vector_3" d="M31.255 32.3918L28.0003 35.6466L25.7545 33.4035L23.3447 35.8161L20.0872 32.5586L25.7545 26.8913L31.255 32.3918Z" fill="white"/>
<path id="Vector_4" d="M34.8656 0H16.3933L0 16.3933L25.5822 41.9754L51.2116 16.346L34.8656 0ZM2.58768 16.396L17.1521 1.82889H34.1096L48.6267 16.346L25.5822 39.3905L2.58768 16.396Z" fill="white"/>
</g>
</g>
</svg>
