<svg width="54" height="52" viewBox="0 0 54 52" fill="none" xmlns="http://www.w3.org/2000/svg">
<path d="M7.99601 46.2621L3.7937 0.674774H49.9692L45.7622 46.2552L26.8533 51.3252L7.99601 46.2621Z" fill="#E44D26"/>
<path d="M26.8813 47.45L42.1609 43.3526L45.7558 4.40213H26.8813V47.45Z" fill="#F16529"/>
<path d="M26.8813 21.3098H19.2319L18.7035 15.5842H26.8813V9.99335H12.386L12.5246 11.4932L13.9451 26.9011H26.8813V21.3098ZM26.8813 35.8304L26.8557 35.8373L20.4181 34.1555L20.0069 29.6969H14.2034L15.0132 38.4755L26.8549 41.6548L26.8813 41.6479V35.8304Z" fill="#EBEBEB"/>
<path d="M26.8611 21.3098V26.9011H33.9792L33.3084 34.1522L26.8611 35.8353V41.6524L38.712 38.4755L38.7989 37.531L40.1573 22.8113L40.298 21.3098H38.7405H26.8611ZM26.8611 9.99335V15.5842H40.8243L40.9402 14.328L41.204 11.4932L41.3422 9.99335H26.8611Z" fill="white"/>
</svg>
