<svg width="54" height="54" viewBox="0 0 54 54" fill="none" xmlns="http://www.w3.org/2000/svg">
<path d="M0.84375 0.421875V53.1562H53.5781V0.421875H0.84375ZM28.7377 45.357C27.9593 46.9387 26.4735 47.9777 24.7518 48.4793C22.1063 49.0868 19.5758 48.7405 17.6934 47.6107C16.4337 46.8378 15.4499 45.6481 14.7821 44.2775L18.7983 41.8179C18.8333 41.8327 18.9388 42.0234 19.0797 42.2698C19.5919 43.1279 20.0336 43.7354 20.9018 44.1619C21.7548 44.453 23.6275 44.639 24.3506 43.138C24.7923 42.3744 24.6518 39.9199 24.6518 37.2043C24.6514 32.937 24.6712 28.6875 24.6712 24.4688H29.611C29.611 29.1094 29.6363 33.5045 29.611 38.0329C29.6215 40.8088 29.8624 43.2835 28.7377 45.357ZM49.2299 43.9615C47.5128 49.8348 37.9396 50.0255 34.1141 46.1451C33.3058 45.2318 32.7991 44.7546 32.3169 43.7003C34.3499 42.5309 34.3499 42.5309 36.3281 41.3864C37.4026 43.038 38.3961 43.9463 40.1836 44.318C42.6085 44.6141 45.0482 43.7809 44.5011 41.2054C43.9387 39.1019 39.5356 38.5902 36.539 36.3407C33.4969 34.2976 32.7839 29.333 35.2839 26.4963C36.1171 25.4471 37.538 24.6641 39.0289 24.2878L40.5848 24.0865C43.5721 24.0262 45.4393 24.8151 46.81 26.3457C47.1914 26.7321 47.5027 27.1489 48.0849 28.0522C46.4936 29.0663 46.4986 29.0566 44.2192 30.5324C43.7324 29.4836 42.9245 28.8255 42.0706 28.5394C40.7451 28.1378 39.0736 28.5744 38.7269 29.9751C38.6066 30.4066 38.6315 30.8083 38.8226 31.5212C39.3597 32.7459 41.1619 33.2783 42.7785 34.0213C47.4323 35.9087 49.0037 37.9325 49.3902 40.3414C49.7623 42.4153 49.3003 43.7607 49.2299 43.9615Z" fill="#F0DB4F"/>
</svg>
