<svg width="54" height="54" viewBox="0 0 54 54" fill="none" xmlns="http://www.w3.org/2000/svg">
<path d="M26.7432 5.16711C24.962 5.17555 23.2619 5.327 21.765 5.59194C17.3564 6.37072 16.5566 8.00085 16.5566 11.0076V14.9778H26.9739V16.3012H12.6466C9.61926 16.3012 6.96819 18.1208 6.13879 21.5835C5.18198 25.5513 5.13979 28.0277 6.13879 32.1709C6.87918 35.2552 8.64768 37.4524 11.6755 37.4524H15.2576V32.6928C15.2576 29.2541 18.2323 26.2212 21.7655 26.2212H32.171C35.0676 26.2212 37.3795 23.8359 37.3795 20.9275V11.008C37.3795 8.18436 34.9976 6.0636 32.171 5.59236C30.3806 5.29452 28.5239 5.1591 26.7432 5.16711ZM21.1094 8.36029C22.1852 8.36029 23.0644 9.2534 23.0644 10.352C23.0644 11.4459 22.1856 12.3306 21.1094 12.3306C20.0294 12.3306 19.1549 11.4459 19.1549 10.352C19.1545 9.2534 20.0294 8.36029 21.1094 8.36029Z" fill="url(#paint0_linear_37_343)"/>
<path d="M38.6783 16.3013V20.9275C38.6783 24.5135 35.6374 27.532 32.1704 27.532H21.7649C18.9147 27.532 16.5564 29.9717 16.5564 32.8261V42.7465C16.5564 45.5693 19.0109 47.2302 21.7649 48.0398C25.0622 49.0088 28.2246 49.1843 32.1704 48.0398C34.7928 47.28 37.3789 45.7519 37.3789 42.7465V38.7758H26.9738V37.452H42.5882C45.6156 37.452 46.7445 35.3405 47.7975 32.1705C48.8851 28.9073 48.8383 25.769 47.7975 21.5831C47.0491 18.5688 45.6202 16.3008 42.5882 16.3008H38.6783V16.3013ZM32.8256 41.4227C33.906 41.4227 34.7806 42.3073 34.7806 43.4021C34.7806 44.4998 33.9056 45.3929 32.8256 45.3929C31.7498 45.3929 30.871 44.4998 30.871 43.4021C30.871 42.3073 31.7498 41.4227 32.8256 41.4227Z" fill="url(#paint1_linear_37_343)"/>
<path opacity="0.444" d="M41.0523 50.455C41.0523 51.9497 34.8018 53.1617 27.092 53.1617C19.3818 53.1617 13.1313 51.9497 13.1313 50.455C13.1313 48.9598 19.3814 47.7478 27.092 47.7478C34.8018 47.7478 41.0523 48.9594 41.0523 50.455Z" fill="url(#paint2_radial_37_343)"/>
<defs>
<linearGradient id="paint0_linear_37_343" x1="4.36096" y1="6.40854" x2="28.3883" y2="26.899" gradientUnits="userSpaceOnUse">
<stop stop-color="#5A9FD4"/>
<stop offset="1" stop-color="#306998"/>
</linearGradient>
<linearGradient id="paint1_linear_37_343" x1="37.4282" y1="39.6362" x2="28.8116" y2="27.5528" gradientUnits="userSpaceOnUse">
<stop stop-color="#FFD43B"/>
<stop offset="1" stop-color="#FFE873"/>
</linearGradient>
<radialGradient id="paint2_radial_37_343" cx="0" cy="0" r="1" gradientUnits="userSpaceOnUse" gradientTransform="translate(27.0356 50.3775) rotate(-90) scale(2.70773 11.9027)">
<stop stop-color="#B8B8B8" stop-opacity="0.498"/>
<stop offset="1" stop-color="#7F7F7F" stop-opacity="0"/>
</radialGradient>
</defs>
</svg>
