<svg width="55" height="49" viewBox="0 0 55 49" fill="none" xmlns="http://www.w3.org/2000/svg">
<g id="Group">
<path id="Vector" d="M27.5 29.3984C30.2053 29.3984 32.3984 27.2053 32.3984 24.5C32.3984 21.7947 30.2053 19.6016 27.5 19.6016C24.7947 19.6016 22.6016 21.7947 22.6016 24.5C22.6016 27.2053 24.7947 29.3984 27.5 29.3984Z" fill="#61DAFB"/>
<path id="Vector_2" d="M46.1055 16.4219C45.1602 16.0781 44.1719 15.7344 43.1406 15.4336C43.3984 14.4023 43.6133 13.3711 43.7852 12.3828C44.6875 6.71094 43.6992 2.71484 40.9492 1.16797C40.1328 0.695312 39.2305 0.480469 38.1992 0.480469C35.1914 0.480469 31.3672 2.71484 27.5 6.45312C23.6328 2.71484 19.8086 0.480469 16.8008 0.480469C15.7695 0.480469 14.8672 0.695312 14.0508 1.16797C11.3008 2.75781 10.3125 6.75391 11.2148 12.3828C11.3867 13.3711 11.6016 14.4023 11.8594 15.4336C10.8281 15.7344 9.83984 16.0352 8.89453 16.4219C3.52344 18.4844 0.601562 21.3203 0.601562 24.5C0.601562 27.6797 3.56641 30.5156 8.89453 32.5781C9.83984 32.9219 10.8281 33.2656 11.8594 33.5664C11.6016 34.5977 11.3867 35.6289 11.2148 36.6172C10.3125 42.2891 11.3008 46.2852 14.0508 47.832C14.8672 48.3047 15.7695 48.5195 16.8008 48.5195C19.8516 48.5195 23.6758 46.2852 27.5 42.5469C31.3672 46.2852 35.1914 48.5195 38.1992 48.5195C39.2305 48.5195 40.1328 48.3047 40.9492 47.832C43.6992 46.2422 44.6875 42.2461 43.7852 36.6172C43.6133 35.6289 43.3984 34.5977 43.1406 33.5664C44.1719 33.2656 45.1602 32.9648 46.1055 32.5781C51.4766 30.5156 54.3984 27.6797 54.3984 24.5C54.3984 21.3203 51.4766 18.4844 46.1055 16.4219ZM39.7461 3.31641C41.5078 4.34766 42.1094 7.52734 41.3789 12.0391C41.25 12.9414 41.0352 13.8867 40.7773 14.875C38.543 14.3594 36.1797 14.0156 33.6875 13.8008C32.2266 11.7383 30.7227 9.89062 29.2188 8.21484C32.3984 5.07812 35.6211 2.92969 38.2422 2.92969C38.8008 2.92969 39.3164 3.05859 39.7461 3.31641ZM34.9336 28.7969C34.1602 30.1719 33.2578 31.5469 32.3125 32.9219C30.7227 33.0508 29.1328 33.0938 27.5 33.0938C25.8242 33.0938 24.2344 33.0508 22.6875 32.9219C21.7422 31.5469 20.8828 30.1719 20.1094 28.7969C19.293 27.3789 18.5195 25.918 17.832 24.5C18.5195 23.082 19.293 21.6211 20.1094 20.2031C20.8828 18.8281 21.7852 17.4531 22.7305 16.0781C24.3203 15.9492 25.9102 15.9063 27.543 15.9063C29.2187 15.9063 30.8086 15.9492 32.3555 16.0781C33.3008 17.4531 34.1602 18.8281 34.9336 20.2031C35.75 21.6211 36.5234 23.082 37.2109 24.5C36.4805 25.918 35.75 27.3359 34.9336 28.7969ZM38.5 27.3789C39.1445 28.8828 39.6602 30.3438 40.1328 31.8047C38.6719 32.1484 37.125 32.4063 35.4922 32.6211C36.0078 31.8047 36.5664 30.9453 37.0391 30.043C37.5547 29.1406 38.0273 28.2383 38.5 27.3789ZM27.5 39.0234C26.4688 37.9063 25.4805 36.7031 24.5352 35.457C25.5234 35.5 26.5117 35.543 27.5 35.543C28.4883 35.543 29.4766 35.5 30.4648 35.457C29.5195 36.7031 28.5312 37.9063 27.5 39.0234ZM19.5078 32.5781C17.875 32.3633 16.3281 32.1055 14.8672 31.7617C15.3398 30.3438 15.8555 28.8398 16.5 27.3359C16.9727 28.1953 17.4453 29.0977 17.9609 29.957C18.4766 30.9023 18.9922 31.7188 19.5078 32.5781ZM16.5 21.6211C15.8555 20.1172 15.3398 18.6562 14.8672 17.1953C16.3281 16.8516 17.875 16.5938 19.5078 16.3789C18.9922 17.1953 18.4336 18.0547 17.9609 18.957C17.4453 19.8594 16.9727 20.7617 16.5 21.6211ZM27.5 9.97656C28.5312 11.0938 29.5195 12.2969 30.4648 13.543C29.4766 13.5 28.4883 13.457 27.5 13.457C26.5117 13.457 25.5234 13.5 24.5352 13.543C25.4805 12.2969 26.4688 11.0938 27.5 9.97656ZM37.0391 19L35.4922 16.4219C37.125 16.6367 38.6719 16.8945 40.1328 17.2383C39.6602 18.6562 39.1445 20.1602 38.5 21.6641C38.0273 20.7617 37.5547 19.8594 37.0391 19ZM13.6211 12.0391C12.8906 7.52734 13.4922 4.34766 15.2539 3.31641C15.6836 3.05859 16.1992 2.92969 16.7578 2.92969C19.3359 2.92969 22.5586 5.03516 25.7812 8.21484C24.2773 9.84766 22.7734 11.7383 21.3125 13.8008C18.8203 14.0156 16.457 14.4023 14.2227 14.875C13.9648 13.8867 13.793 12.9414 13.6211 12.0391ZM3.00781 24.5C3.00781 22.4805 5.45703 20.332 9.75391 18.7422C10.6133 18.3984 11.5586 18.0977 12.5039 17.8398C13.1914 19.9883 14.0508 22.2656 15.082 24.543C14.0508 26.8203 13.1484 29.0547 12.5039 31.2031C6.57422 29.4844 3.00781 26.9062 3.00781 24.5ZM15.2539 45.6836C13.4922 44.6523 12.8906 41.4727 13.6211 36.9609C13.75 36.0586 13.9648 35.1133 14.2227 34.125C16.457 34.6406 18.8203 34.9844 21.3125 35.1992C22.7734 37.2617 24.2773 39.1094 25.7812 40.7852C22.6016 43.9219 19.3789 46.0703 16.7578 46.0703C16.1992 46.0703 15.6836 45.9414 15.2539 45.6836ZM41.3789 36.9609C42.1094 41.4727 41.5078 44.6523 39.7461 45.6836C39.3164 45.9414 38.8008 46.0703 38.2422 46.0703C35.6641 46.0703 32.4414 43.9648 29.2188 40.7852C30.7227 39.1523 32.2266 37.2617 33.6875 35.1992C36.1797 34.9844 38.543 34.5977 40.7773 34.125C41.0352 35.1133 41.207 36.0586 41.3789 36.9609ZM45.2461 30.2578C44.3867 30.6016 43.4414 30.9023 42.4961 31.1602C41.8086 29.0117 40.9492 26.7344 39.918 24.457C40.9492 22.1797 41.8516 19.9453 42.4961 17.7969C48.4258 19.5156 51.9922 22.0938 51.9922 24.5C51.9922 26.5195 49.5 28.668 45.2461 30.2578Z" fill="#61DAFB"/>
</g>
</svg>
