<svg width="57" height="55" viewBox="0 0 57 55" fill="none" xmlns="http://www.w3.org/2000/svg">
<path d="M28.5017 11.0009C20.9016 11.0009 16.1532 14.6661 14.2517 21.9996C17.1008 18.3339 20.4269 16.9593 24.2258 17.8759C26.3949 18.3975 27.9451 19.9152 29.6617 21.5969C32.4556 24.3328 35.6895 27.5 42.7517 27.5C50.3514 27.5 55.1002 23.8343 57.0017 16.4991C54.1522 20.1669 50.8266 21.5415 47.0272 20.625C44.8585 20.1029 43.3101 18.5857 41.5912 16.9039C38.7991 14.1681 35.5661 11.0009 28.5017 11.0009ZM14.2517 27.5C6.65201 27.5 1.90319 31.1657 0.00170898 38.5009C2.85082 34.833 6.17641 33.4585 9.97582 34.375C12.1449 34.8971 13.6951 36.4143 15.4117 38.0961C18.2056 40.8319 21.4395 43.9991 28.5017 43.9991C36.1014 43.9991 40.8502 40.3339 42.7517 33.0004C39.9022 36.6661 36.5766 38.0407 32.7772 37.1241C30.6085 36.6025 29.0601 35.0848 27.3412 33.403C24.5491 30.6672 21.3161 27.5 14.2517 27.5Z" fill="#38B2AC"/>
</svg>
